<svg width="98" height="79" viewBox="0 0 98 79" fill="none" xmlns="http://www.w3.org/2000/svg">
<g opacity="0.2">
<path d="M73.9501 15.2998C77.3316 15.2998 80.5746 16.6431 82.9657 19.0342C85.3568 21.4253 86.7001 24.6683 86.7001 28.0498V48.9598C85.0695 48.1269 83.3614 47.4556 81.6001 46.9555V35.6998H20.4V73.9498C20.4 75.9787 21.206 77.9245 22.6407 79.3592C24.0753 80.7938 26.0211 81.5998 28.05 81.5998H46.9557C47.4623 83.3814 48.1305 85.0814 48.9601 86.6998H28.05C24.6685 86.6998 21.4255 85.3565 19.0344 82.9654C16.6433 80.5743 15.3 77.3313 15.3 73.9498V28.0498C15.3 24.6683 16.6433 21.4253 19.0344 19.0342C21.4255 16.6431 24.6685 15.2998 28.05 15.2998H73.9501ZM73.9501 20.3998H28.05C26.0211 20.3998 24.0753 21.2058 22.6407 22.6404C21.206 24.0751 20.4 26.0209 20.4 28.0498V30.5998H81.6001V28.0498C81.6001 26.0209 80.7941 24.0751 79.3594 22.6404C77.9248 21.2058 75.979 20.3998 73.9501 20.3998ZM96.9001 73.9498C96.9001 80.0365 94.4821 85.8739 90.1782 90.1779C85.8742 94.4819 80.0368 96.8998 73.9501 96.8998C67.8633 96.8998 62.0259 94.4819 57.722 90.1779C53.418 85.8739 51.0001 80.0365 51.0001 73.9498C51.0001 67.8631 53.418 62.0257 57.722 57.7217C62.0259 53.4177 67.8633 50.9998 73.9501 50.9998C80.0368 50.9998 85.8742 53.4177 90.1782 57.7217C94.4821 62.0257 96.9001 67.8631 96.9001 73.9498ZM73.9501 77.5555L79.7947 83.4052C80.0317 83.6423 80.3132 83.8304 80.623 83.9587C80.9327 84.087 81.2648 84.153 81.6001 84.153C81.9353 84.153 82.2674 84.087 82.5771 83.9587C82.8869 83.8304 83.1684 83.6423 83.4055 83.4052C83.6425 83.1681 83.8306 82.8867 83.9589 82.5769C84.0872 82.2671 84.1533 81.9351 84.1533 81.5998C84.1533 81.2645 84.0872 80.9325 83.9589 80.6227C83.8306 80.313 83.6425 80.0315 83.4055 79.7944L77.5558 73.9498L83.4055 68.1052C83.8843 67.6264 84.1533 66.977 84.1533 66.2998C84.1533 65.6227 83.8843 64.9732 83.4055 64.4944C82.9266 64.0156 82.2772 63.7466 81.6001 63.7466C80.9229 63.7466 80.2735 64.0156 79.7947 64.4944L73.9501 70.3441L68.1055 64.4944C67.6266 64.0156 66.9772 63.7466 66.3001 63.7466C65.6229 63.7466 64.9735 64.0156 64.4947 64.4944C64.0158 64.9732 63.7468 65.6227 63.7468 66.2998C63.7468 66.977 64.0158 67.6264 64.4947 68.1052L70.3444 73.9498L64.4947 79.7944C64.2576 80.0315 64.0695 80.313 63.9412 80.6227C63.8129 80.9325 63.7468 81.2645 63.7468 81.5998C63.7468 81.9351 63.8129 82.2671 63.9412 82.5769C64.0695 82.8867 64.2576 83.1681 64.4947 83.4052C64.7317 83.6423 65.0132 83.8304 65.323 83.9587C65.6327 84.087 65.9648 84.153 66.3001 84.153C66.6353 84.153 66.9674 84.087 67.2771 83.9587C67.5869 83.8304 67.8684 83.6423 68.1055 83.4052L73.9501 77.5555Z" fill="white"/>
</g>
</svg>
