<svg width="95" height="79" viewBox="0 0 95 79" fill="none" xmlns="http://www.w3.org/2000/svg">
<g opacity="0.2">
<path d="M65.875 8.5V21.25M27.625 8.5V21.25M46.75 8.5V21.25M80.75 57.375V44.625C80.75 30.6 80.75 23.5875 76.3938 19.2313C72.0375 14.875 65.025 14.875 51 14.875H42.5C28.475 14.875 21.4625 14.875 17.1063 19.2313C12.75 23.5875 12.75 30.6 12.75 44.625V63.75C12.75 77.775 12.75 84.7875 17.1063 89.1438C21.4625 93.5 28.475 93.5 42.5 93.5H51M29.75 63.75H46.75M29.75 46.75H63.75M59.5 85C59.5 85 63.75 85 68 93.5C68 93.5 77.2523 72.25 89.25 68" stroke="white" stroke-width="4.25" stroke-linecap="round" stroke-linejoin="round"/>
</g>
</svg>
