<svg width="88" height="79" viewBox="0 0 88 79" fill="none" xmlns="http://www.w3.org/2000/svg">
<g opacity="0.2">
<path d="M73.8862 89.25C69.1489 89.25 65.1312 87.601 61.8332 84.303C58.5352 80.9994 56.8862 76.9817 56.8862 72.25C56.8862 67.5184 58.5352 63.5021 61.8332 60.2013C65.1312 56.9004 69.1475 55.25 73.882 55.25C78.6193 55.25 82.637 56.9004 85.935 60.2013C89.2358 63.4993 90.8863 67.5155 90.8863 72.25C90.8863 76.9845 89.2358 81.0022 85.935 84.303C82.6342 87.6039 78.6179 89.2529 73.8862 89.25ZM75.5182 71.5488V61.625C75.5182 61.1887 75.3553 60.8062 75.0295 60.4775C74.7008 60.1545 74.3183 59.993 73.882 59.993C73.4485 59.993 73.0674 60.1559 72.7388 60.4818C72.4129 60.8076 72.25 61.1887 72.25 61.625V71.5403C72.25 71.9738 72.3293 72.3945 72.488 72.8025C72.6438 73.2077 72.9073 73.5959 73.2785 73.967L79.7598 80.4483C80.0771 80.7628 80.4511 80.9342 80.8818 80.9625C81.3124 80.9909 81.7119 80.8194 82.0802 80.4483C82.4486 80.0771 82.6342 79.6904 82.637 79.288C82.6398 78.8857 82.4557 78.4989 82.0845 78.1278L75.5182 71.5488ZM23.868 85C21.9782 85 20.3617 84.3271 19.0187 82.9813C17.6757 81.6354 17.0028 80.0219 17 78.1405V23.8638C17 21.9768 17.6729 20.3618 19.0187 19.0188C20.3646 17.6758 21.9796 17.0029 23.8637 17H43.571C43.9677 15.3397 44.8503 13.9443 46.2188 12.8138C47.5872 11.6804 49.181 11.1138 51 11.1138C52.853 11.1138 54.4595 11.6804 55.8195 12.8138C57.1795 13.9414 58.0578 15.3369 58.4545 17H78.132C80.0218 17 81.6397 17.6729 82.9855 19.0188C84.3313 20.3646 85.0028 21.9796 85 23.8638V44.2978C85 44.9013 84.796 45.4056 84.388 45.8108C83.98 46.2159 83.4743 46.4199 82.8708 46.4228C82.2673 46.4256 81.7629 46.2216 81.3577 45.8108C80.9526 45.3999 80.75 44.8956 80.75 44.2978V23.868C80.75 23.2135 80.478 22.6129 79.934 22.066C79.39 21.5192 78.7893 21.2472 78.132 21.25H68V27.2978C68 28.2696 67.6742 29.0856 67.0225 29.7458C66.3708 30.4059 65.5633 30.7346 64.6 30.7318H37.4C36.4367 30.7318 35.6292 30.4031 34.9775 29.7458C34.3258 29.0884 34 28.2724 34 27.2978V21.25H23.868C23.2135 21.25 22.6128 21.522 22.066 22.066C21.5192 22.61 21.2472 23.2107 21.25 23.868V78.1363C21.25 78.8984 21.4951 79.5246 21.9852 80.0148C22.4754 80.5049 23.103 80.75 23.868 80.75H48.6285C49.232 80.75 49.7377 80.954 50.1457 81.362C50.5537 81.77 50.7563 82.2758 50.7535 82.8793C50.7507 83.4828 50.5481 83.9871 50.1457 84.3923C49.7434 84.7974 49.2377 85 48.6285 85H23.868ZM51.0128 22.2275C51.9902 22.2275 52.8048 21.8989 53.4565 21.2415C54.1082 20.5814 54.434 19.7625 54.434 18.785C54.434 17.8075 54.1039 16.9929 53.4437 16.3413C52.7836 15.6896 51.9647 15.3638 50.9872 15.3638C50.0098 15.3638 49.1952 15.6953 48.5435 16.3583C47.8918 17.0213 47.566 17.8401 47.566 18.8148C47.566 19.7894 47.8975 20.6026 48.5605 21.2543C49.2235 21.9059 50.0409 22.2275 51.0128 22.2275Z" fill="white"/>
</g>
</svg>
