<svg width="95" height="79" viewBox="0 0 95 79" fill="none" xmlns="http://www.w3.org/2000/svg">
<g opacity="0.2">
<path d="M51 59.5C51.8406 59.5 52.6623 59.2507 53.3612 58.7837C54.0601 58.3167 54.6048 57.653 54.9265 56.8764C55.2482 56.0998 55.3323 55.2453 55.1683 54.4209C55.0043 53.5964 54.5996 52.8392 54.0052 52.2448C53.4108 51.6504 52.6535 51.2456 51.8291 51.0817C51.0047 50.9177 50.1502 51.0018 49.3736 51.3235C48.597 51.6452 47.9333 52.1899 47.4663 52.8888C46.9993 53.5877 46.75 54.4094 46.75 55.25C46.75 56.3772 47.1978 57.4582 47.9948 58.2552C48.7918 59.0522 49.8728 59.5 51 59.5ZM72.25 59.5C73.0906 59.5 73.9123 59.2507 74.6112 58.7837C75.3101 58.3167 75.8548 57.653 76.1765 56.8764C76.4982 56.0998 76.5823 55.2453 76.4183 54.4209C76.2543 53.5964 75.8496 52.8392 75.2552 52.2448C74.6608 51.6504 73.9036 51.2456 73.0791 51.0817C72.2547 50.9177 71.4002 51.0018 70.6236 51.3235C69.847 51.6452 69.1832 52.1899 68.7162 52.8888C68.2493 53.5877 68 54.4094 68 55.25C68 56.3772 68.4478 57.4582 69.2448 58.2552C70.0418 59.0522 71.1228 59.5 72.25 59.5ZM51 76.5C51.8406 76.5 52.6623 76.2507 53.3612 75.7837C54.0601 75.3167 54.6048 74.653 54.9265 73.8764C55.2482 73.0998 55.3323 72.2453 55.1683 71.4209C55.0043 70.5964 54.5996 69.8392 54.0052 69.2448C53.4108 68.6504 52.6535 68.2456 51.8291 68.0817C51.0047 67.9177 50.1502 68.0018 49.3736 68.3235C48.597 68.6452 47.9333 69.1899 47.4663 69.8888C46.9993 70.5877 46.75 71.4094 46.75 72.25C46.75 73.3772 47.1978 74.4582 47.9948 75.2552C48.7918 76.0522 49.8728 76.5 51 76.5ZM72.25 76.5C73.0906 76.5 73.9123 76.2507 74.6112 75.7837C75.3101 75.3167 75.8548 74.653 76.1765 73.8764C76.4982 73.0998 76.5823 72.2453 76.4183 71.4209C76.2543 70.5964 75.8496 69.8392 75.2552 69.2448C74.6608 68.6504 73.9036 68.2456 73.0791 68.0817C72.2547 67.9177 71.4002 68.0018 70.6236 68.3235C69.847 68.6452 69.1832 69.1899 68.7162 69.8888C68.2493 70.5877 68 71.4094 68 72.25C68 73.3772 68.4478 74.4582 69.2448 75.2552C70.0418 76.0522 71.1228 76.5 72.25 76.5ZM29.75 59.5C30.5906 59.5 31.4123 59.2507 32.1112 58.7837C32.8101 58.3167 33.3548 57.653 33.6765 56.8764C33.9982 56.0998 34.0823 55.2453 33.9183 54.4209C33.7544 53.5964 33.3496 52.8392 32.7552 52.2448C32.1608 51.6504 31.4036 51.2456 30.5791 51.0817C29.7547 50.9177 28.9002 51.0018 28.1236 51.3235C27.347 51.6452 26.6833 52.1899 26.2163 52.8888C25.7493 53.5877 25.5 54.4094 25.5 55.25C25.5 56.3772 25.9478 57.4582 26.7448 58.2552C27.5418 59.0522 28.6228 59.5 29.75 59.5ZM80.75 17H76.5V12.75C76.5 11.6228 76.0522 10.5418 75.2552 9.7448C74.4582 8.94777 73.3772 8.5 72.25 8.5C71.1228 8.5 70.0418 8.94777 69.2448 9.7448C68.4478 10.5418 68 11.6228 68 12.75V17H34V12.75C34 11.6228 33.5522 10.5418 32.7552 9.7448C31.9582 8.94777 30.8772 8.5 29.75 8.5C28.6228 8.5 27.5418 8.94777 26.7448 9.7448C25.9478 10.5418 25.5 11.6228 25.5 12.75V17H21.25C17.8685 17 14.6255 18.3433 12.2344 20.7344C9.8433 23.1255 8.5 26.3685 8.5 29.75V80.75C8.5 84.1315 9.8433 87.3745 12.2344 89.7656C14.6255 92.1567 17.8685 93.5 21.25 93.5H80.75C84.1315 93.5 87.3745 92.1567 89.7656 89.7656C92.1567 87.3745 93.5 84.1315 93.5 80.75V29.75C93.5 26.3685 92.1567 23.1255 89.7656 20.7344C87.3745 18.3433 84.1315 17 80.75 17ZM85 80.75C85 81.8772 84.5522 82.9582 83.7552 83.7552C82.9582 84.5522 81.8772 85 80.75 85H21.25C20.1228 85 19.0418 84.5522 18.2448 83.7552C17.4478 82.9582 17 81.8772 17 80.75V42.5H85V80.75ZM85 34H17V29.75C17 28.6228 17.4478 27.5418 18.2448 26.7448C19.0418 25.9478 20.1228 25.5 21.25 25.5H80.75C81.8772 25.5 82.9582 25.9478 83.7552 26.7448C84.5522 27.5418 85 28.6228 85 29.75V34ZM29.75 76.5C30.5906 76.5 31.4123 76.2507 32.1112 75.7837C32.8101 75.3167 33.3548 74.653 33.6765 73.8764C33.9982 73.0998 34.0823 72.2453 33.9183 71.4209C33.7544 70.5964 33.3496 69.8392 32.7552 69.2448C32.1608 68.6504 31.4036 68.2456 30.5791 68.0817C29.7547 67.9177 28.9002 68.0018 28.1236 68.3235C27.347 68.6452 26.6833 69.1899 26.2163 69.8888C25.7493 70.5877 25.5 71.4094 25.5 72.25C25.5 73.3772 25.9478 74.4582 26.7448 75.2552C27.5418 76.0522 28.6228 76.5 29.75 76.5Z" fill="white"/>
</g>
</svg>
