<svg width="16" height="16" viewBox="0 0 16 16" fill="none" xmlns="http://www.w3.org/2000/svg">
<path fill-rule="evenodd" clip-rule="evenodd" d="M3.77938 3.17334C3.79739 3.02196 3.85045 2.87688 3.93437 2.74961C4.01828 2.62235 4.13073 2.51642 4.26277 2.44023C4.39481 2.36405 4.5428 2.31972 4.69498 2.31077C4.84715 2.30182 4.99932 2.32849 5.13938 2.38867C5.84738 2.69134 7.43405 3.41067 9.44738 4.57267C11.4614 5.73534 12.878 6.75067 13.4934 7.21134C14.0187 7.60534 14.02 8.38667 13.494 8.782C12.8847 9.24001 11.4854 10.242 9.44738 11.4193C7.40738 12.5967 5.83938 13.3073 5.13805 13.606C4.53405 13.864 3.85805 13.4727 3.77938 12.8213C3.68738 12.06 3.51538 10.3313 3.51538 7.99667C3.51538 5.66334 3.68671 3.93534 3.77938 3.17334Z" fill="#F0EFFC"/>
</svg>
