<svg width="24" height="24" viewBox="0 0 24 24" fill="none" xmlns="http://www.w3.org/2000/svg">
<path d="M12.0032 18.5C12.0049 19.0243 11.8412 19.5357 11.5354 19.9616C11.2297 20.3875 10.7974 20.7061 10.3002 20.8722C9.80294 21.0383 9.26598 21.0435 8.76564 20.8869C8.26531 20.7303 7.82707 20.42 7.51325 20H7.50325C7.11808 20.0046 6.73719 19.9189 6.39106 19.7499C6.04493 19.5809 5.74316 19.3332 5.5099 19.0267C5.27664 18.7202 5.11838 18.3633 5.04776 17.9846C4.97715 17.6059 4.99615 17.216 5.10325 16.846C4.57242 16.682 4.09801 16.3729 3.73356 15.9536C3.36911 15.5343 3.12914 15.0214 3.04074 14.4729C2.95234 13.9244 3.01903 13.3621 3.23329 12.8495C3.44754 12.3369 3.80082 11.8944 4.25325 11.572C3.98516 11.0219 3.93085 10.3918 4.10082 9.80393C4.27079 9.21604 4.65296 8.71218 5.17325 8.39C5.03926 8.04845 4.98282 7.68139 5.008 7.31536C5.03319 6.94933 5.13938 6.59347 5.31889 6.27348C5.4984 5.9535 5.74675 5.67739 6.046 5.46511C6.34525 5.25283 6.68792 5.10968 7.04925 5.046C7.11705 4.68026 7.26561 4.33426 7.4841 4.03322C7.70259 3.73218 7.98551 3.4837 8.31222 3.30587C8.63893 3.12805 9.00121 3.02537 9.37264 3.00533C9.74407 2.98528 10.1153 3.04837 10.4592 3.19C10.9162 3.37913 11.3069 3.69956 11.5817 4.11075C11.8565 4.52194 12.0032 5.00541 12.0032 5.5M12.0032 18.5V5.5M12.0032 18.5C12.0016 19.0243 12.1653 19.5357 12.4711 19.9616C12.7768 20.3875 13.209 20.7061 13.7063 20.8722C14.2036 21.0383 14.7405 21.0435 15.2409 20.8869C15.7412 20.7303 16.1794 20.42 16.4932 20H16.5032C16.8887 20.005 17.2699 19.9198 17.6164 19.7509C17.9629 19.5821 18.2651 19.3345 18.4987 19.0279C18.7323 18.7213 18.8908 18.3643 18.9616 17.9854C19.0324 17.6065 19.0134 17.2163 18.9062 16.846C19.4369 16.6817 19.911 16.3723 20.2751 15.9528C20.6392 15.5333 20.8788 15.0204 20.9669 14.4719C21.055 13.9235 20.988 13.3613 20.7736 12.8489C20.5591 12.3365 20.2057 11.8942 19.7532 11.572C20.0212 11.0218 20.0754 10.3916 19.9052 9.80372C19.7351 9.21582 19.3527 8.71203 18.8322 8.39C18.9662 8.04852 19.0227 7.68153 18.9976 7.31556C18.9725 6.9496 18.8664 6.59378 18.6869 6.27381C18.5075 5.95384 18.2593 5.67772 17.9602 5.46539C17.661 5.25305 17.3185 5.10981 16.9572 5.046C16.8513 4.47218 16.5479 3.9535 16.0997 3.57983C15.6516 3.20616 15.0868 3.00103 14.5032 3C13.8402 3 13.2043 3.26339 12.7355 3.73223C12.2666 4.20107 12.0032 4.83696 12.0032 5.5M4.00325 10.5C4.00323 10.0867 4.10567 9.6799 4.3014 9.31591C4.49712 8.95193 4.78003 8.64214 5.12481 8.41427C5.46958 8.1864 5.86547 8.04756 6.27705 8.01017C6.68862 7.97277 7.10305 8.038 7.48325 8.2M7.20325 16.751C6.52427 17.0483 5.75928 17.0837 5.05575 16.8504C4.35222 16.6171 3.75996 16.1316 3.39315 15.4875C3.02633 14.8435 2.91093 14.0864 3.06919 13.3623C3.22745 12.6382 3.64818 11.9983 4.25025 11.566M20.0032 10.5C20.0033 10.0866 19.9009 9.67963 19.7051 9.31553C19.5093 8.95143 19.2263 8.64156 18.8814 8.41366C18.5365 8.18577 18.1405 8.04696 17.7287 8.00968C17.317 7.97239 16.9025 8.03778 16.5222 8.2M16.8022 16.751C17.4813 17.0491 18.2467 17.0851 18.9508 16.852C19.6548 16.619 20.2476 16.1334 20.6147 15.4891C20.9818 14.8447 21.0972 14.0872 20.9387 13.3627C20.7802 12.6382 20.3589 11.9982 19.7562 11.566" stroke="#4318FF" stroke-width="2" stroke-linecap="round" stroke-linejoin="round"/>
</svg>
